<?xml version="1.0" encoding="UTF-8"?>
<svg xmlns="http://www.w3.org/2000/svg" width="960" height="482" viewBox="0 0 960 482" role="img" aria-label="Reports &amp; month-end">
<title>Reports &amp; month-end</title>
<defs><pattern id="capHatch" width="6" height="6" patternUnits="userSpaceOnUse" patternTransform="rotate(45)"><rect width="6" height="6" fill="#ffffff"/><line x1="0" y1="0" x2="0" y2="6" stroke="#4B5563" stroke-width="2"/></pattern></defs>
<rect x="0" y="0" width="960" height="482" fill="#ffffff"/>
<g font-family="system-ui, -apple-system, 'Segoe UI', Roboto, 'Helvetica Neue', Arial, sans-serif" fill="#1F2937">
<text x="16" y="30" font-size="18" text-anchor="start" font-weight="600" fill="#1F2937">Reports &amp; month-end</text>
<text x="16" y="50" font-size="12" text-anchor="start" font-weight="normal" fill="#4B5563">Median of 6 repetitions; each test on its own relative scale; the absolute median is printed after the ratio.</text>
<rect x="16" y="62" width="12" height="12" fill="#0072B2"/>
<text x="33" y="72" font-size="12" text-anchor="start" font-weight="normal" fill="#1F2937">SQL Server</text>
<rect x="118" y="62" width="12" height="12" fill="#E69F00"/>
<text x="135" y="72" font-size="12" text-anchor="start" font-weight="normal" fill="#1F2937">MySQL</text>
<rect x="184" y="62" width="12" height="12" fill="#CC79A7"/>
<text x="201" y="72" font-size="12" text-anchor="start" font-weight="normal" fill="#1F2937">PostgreSQL</text>
<line x1="108" y1="120" x2="108" y2="180" stroke="#E5E7EB" stroke-width="1"/>
<line x1="108" y1="208" x2="108" y2="268" stroke="#E5E7EB" stroke-width="1"/>
<line x1="108" y1="296" x2="108" y2="356" stroke="#E5E7EB" stroke-width="1"/>
<line x1="108" y1="384" x2="108" y2="444" stroke="#E5E7EB" stroke-width="1"/>
<text x="108" y="90" font-size="10" text-anchor="middle" font-weight="normal" fill="#4B5563">0×</text>
<line x1="186.3" y1="120" x2="186.3" y2="180" stroke="#374151" stroke-width="1" stroke-dasharray="4 3"/>
<line x1="186.3" y1="208" x2="186.3" y2="268" stroke="#374151" stroke-width="1" stroke-dasharray="4 3"/>
<line x1="186.3" y1="296" x2="186.3" y2="356" stroke="#374151" stroke-width="1" stroke-dasharray="4 3"/>
<line x1="186.3" y1="384" x2="186.3" y2="444" stroke="#374151" stroke-width="1" stroke-dasharray="4 3"/>
<text x="186.3" y="90" font-size="10" text-anchor="middle" font-weight="normal" fill="#4B5563">1×</text>
<line x1="264.5" y1="120" x2="264.5" y2="180" stroke="#E5E7EB" stroke-width="1"/>
<line x1="264.5" y1="208" x2="264.5" y2="268" stroke="#E5E7EB" stroke-width="1"/>
<line x1="264.5" y1="296" x2="264.5" y2="356" stroke="#E5E7EB" stroke-width="1"/>
<line x1="264.5" y1="384" x2="264.5" y2="444" stroke="#E5E7EB" stroke-width="1"/>
<text x="264.5" y="90" font-size="10" text-anchor="middle" font-weight="normal" fill="#4B5563">2×</text>
<line x1="342.8" y1="120" x2="342.8" y2="180" stroke="#E5E7EB" stroke-width="1"/>
<line x1="342.8" y1="208" x2="342.8" y2="268" stroke="#E5E7EB" stroke-width="1"/>
<line x1="342.8" y1="296" x2="342.8" y2="356" stroke="#E5E7EB" stroke-width="1"/>
<line x1="342.8" y1="384" x2="342.8" y2="444" stroke="#E5E7EB" stroke-width="1"/>
<text x="342.8" y="90" font-size="10" text-anchor="middle" font-weight="normal" fill="#4B5563">3×</text>
<line x1="421" y1="120" x2="421" y2="180" stroke="#E5E7EB" stroke-width="1"/>
<line x1="421" y1="208" x2="421" y2="268" stroke="#E5E7EB" stroke-width="1"/>
<line x1="421" y1="296" x2="421" y2="356" stroke="#E5E7EB" stroke-width="1"/>
<line x1="421" y1="384" x2="421" y2="444" stroke="#E5E7EB" stroke-width="1"/>
<text x="421" y="90" font-size="10" text-anchor="middle" font-weight="normal" fill="#4B5563">4×</text>
<line x1="499.3" y1="120" x2="499.3" y2="180" stroke="#E5E7EB" stroke-width="1"/>
<line x1="499.3" y1="208" x2="499.3" y2="268" stroke="#E5E7EB" stroke-width="1"/>
<line x1="499.3" y1="296" x2="499.3" y2="356" stroke="#E5E7EB" stroke-width="1"/>
<line x1="499.3" y1="384" x2="499.3" y2="444" stroke="#E5E7EB" stroke-width="1"/>
<text x="499.3" y="90" font-size="10" text-anchor="middle" font-weight="normal" fill="#4B5563">5×</text>
<line x1="577.5" y1="120" x2="577.5" y2="180" stroke="#E5E7EB" stroke-width="1"/>
<line x1="577.5" y1="208" x2="577.5" y2="268" stroke="#E5E7EB" stroke-width="1"/>
<line x1="577.5" y1="296" x2="577.5" y2="356" stroke="#E5E7EB" stroke-width="1"/>
<line x1="577.5" y1="384" x2="577.5" y2="444" stroke="#E5E7EB" stroke-width="1"/>
<text x="577.5" y="90" font-size="10" text-anchor="middle" font-weight="normal" fill="#4B5563">6×</text>
<line x1="655.8" y1="120" x2="655.8" y2="180" stroke="#E5E7EB" stroke-width="1"/>
<line x1="655.8" y1="208" x2="655.8" y2="268" stroke="#E5E7EB" stroke-width="1"/>
<line x1="655.8" y1="296" x2="655.8" y2="356" stroke="#E5E7EB" stroke-width="1"/>
<line x1="655.8" y1="384" x2="655.8" y2="444" stroke="#E5E7EB" stroke-width="1"/>
<text x="655.8" y="90" font-size="10" text-anchor="middle" font-weight="normal" fill="#4B5563">7×</text>
<line x1="734" y1="120" x2="734" y2="180" stroke="#E5E7EB" stroke-width="1"/>
<line x1="734" y1="208" x2="734" y2="268" stroke="#E5E7EB" stroke-width="1"/>
<line x1="734" y1="296" x2="734" y2="356" stroke="#E5E7EB" stroke-width="1"/>
<line x1="734" y1="384" x2="734" y2="444" stroke="#E5E7EB" stroke-width="1"/>
<text x="734" y="90" font-size="10" text-anchor="middle" font-weight="normal" fill="#4B5563">8×</text>
<text x="16" y="115" font-size="12" text-anchor="start" font-weight="600" fill="#1F2937">Sales by customer and month</text>
<text x="102" y="136" font-size="11" text-anchor="end" font-weight="normal" fill="#1F2937">SQL Server</text>
<rect x="108" y="122" width="78" height="16" fill="#0072B2" fill-opacity="1"><title>SQL Server - Sales by customer and month: median 14.7 ms (14.7 (11.8–16)); 1.00× of the fastest</title></rect>
<line x1="171" y1="130" x2="193.1" y2="130" stroke="#111827" stroke-width="1"/>
<line x1="171" y1="127" x2="171" y2="133" stroke="#111827" stroke-width="1"/>
<line x1="193.1" y1="127" x2="193.1" y2="133" stroke="#111827" stroke-width="1"/>
<text x="199.1" y="136" font-size="11" text-anchor="start" font-weight="normal" fill="#1F2937">1.00× · 14.7 ms</text>
<text x="102" y="156" font-size="11" text-anchor="end" font-weight="normal" fill="#1F2937">MySQL</text>
<rect x="108" y="142" width="361" height="16" fill="#E69F00" fill-opacity="1"><title>MySQL - Sales by customer and month: median 67.8 ms (67.8 (54.6–70.4)); 4.61× of the fastest</title></rect>
<line x1="399.1" y1="150" x2="483.1" y2="150" stroke="#111827" stroke-width="1"/>
<line x1="399.1" y1="147" x2="399.1" y2="153" stroke="#111827" stroke-width="1"/>
<line x1="483.1" y1="147" x2="483.1" y2="153" stroke="#111827" stroke-width="1"/>
<text x="489.1" y="156" font-size="11" text-anchor="start" font-weight="normal" fill="#1F2937">≈ 4.61× · 67.8 ms</text>
<text x="102" y="176" font-size="11" text-anchor="end" font-weight="normal" fill="#1F2937">PostgreSQL</text>
<rect x="108" y="162" width="82" height="16" fill="#CC79A7" fill-opacity="1"><title>PostgreSQL - Sales by customer and month: median 15.5 ms (15.5 (15–17.1)); 1.05× of the fastest</title></rect>
<line x1="188" y1="170" x2="199.1" y2="170" stroke="#111827" stroke-width="1"/>
<line x1="188" y1="167" x2="188" y2="173" stroke="#111827" stroke-width="1"/>
<line x1="199.1" y1="167" x2="199.1" y2="173" stroke="#111827" stroke-width="1"/>
<text x="205.1" y="176" font-size="11" text-anchor="start" font-weight="normal" fill="#1F2937">≈ 1.05× · 15.5 ms</text>
<text x="16" y="203" font-size="12" text-anchor="start" font-weight="600" fill="#1F2937">Trial balance</text>
<text x="102" y="224" font-size="11" text-anchor="end" font-weight="normal" fill="#1F2937">SQL Server</text>
<rect x="108" y="210" width="582" height="16" fill="#0072B2" fill-opacity="1"><title>SQL Server - Trial balance: median 262 ms (262 (251–269)); 7.44× of the fastest</title></rect>
<line x1="666.2" y1="218" x2="705.5" y2="218" stroke="#111827" stroke-width="1"/>
<line x1="666.2" y1="215" x2="666.2" y2="221" stroke="#111827" stroke-width="1"/>
<line x1="705.5" y1="215" x2="705.5" y2="221" stroke="#111827" stroke-width="1"/>
<text x="711.5" y="224" font-size="11" text-anchor="start" font-weight="normal" fill="#1F2937">≈ 7.44× · 262 ms</text>
<text x="102" y="244" font-size="11" text-anchor="end" font-weight="normal" fill="#1F2937">MySQL</text>
<rect x="108" y="230" width="78" height="16" fill="#E69F00" fill-opacity="1"><title>MySQL - Trial balance: median 35.2 ms (35.2 (33.8–39.3)); 1.00× of the fastest</title></rect>
<line x1="183.2" y1="238" x2="195.5" y2="238" stroke="#111827" stroke-width="1"/>
<line x1="183.2" y1="235" x2="183.2" y2="241" stroke="#111827" stroke-width="1"/>
<line x1="195.5" y1="235" x2="195.5" y2="241" stroke="#111827" stroke-width="1"/>
<text x="201.5" y="244" font-size="11" text-anchor="start" font-weight="normal" fill="#1F2937">1.00× · 35.2 ms</text>
<text x="102" y="264" font-size="11" text-anchor="end" font-weight="normal" fill="#1F2937">PostgreSQL</text>
<rect x="108" y="250" width="82" height="16" fill="#CC79A7" fill-opacity="1"><title>PostgreSQL - Trial balance: median 36.9 ms (36.9 (36.3–38.8)); 1.05× of the fastest</title></rect>
<line x1="188.7" y1="258" x2="194.4" y2="258" stroke="#111827" stroke-width="1"/>
<line x1="188.7" y1="255" x2="188.7" y2="261" stroke="#111827" stroke-width="1"/>
<line x1="194.4" y1="255" x2="194.4" y2="261" stroke="#111827" stroke-width="1"/>
<text x="200.4" y="264" font-size="11" text-anchor="start" font-weight="normal" fill="#1F2937">≈ 1.05× · 36.9 ms</text>
<text x="16" y="291" font-size="12" text-anchor="start" font-weight="600" fill="#1F2937">GL account details for a year</text>
<text x="102" y="312" font-size="11" text-anchor="end" font-weight="normal" fill="#1F2937">SQL Server</text>
<rect x="108" y="298" width="335" height="16" fill="#0072B2" fill-opacity="1"><title>SQL Server - GL account details for a year: median 26.8 ms (26.8 (24.7–27.5)); 4.28× of the fastest</title></rect>
<line x1="416.6" y1="306" x2="451.7" y2="306" stroke="#111827" stroke-width="1"/>
<line x1="416.6" y1="303" x2="416.6" y2="309" stroke="#111827" stroke-width="1"/>
<line x1="451.7" y1="303" x2="451.7" y2="309" stroke="#111827" stroke-width="1"/>
<text x="457.7" y="312" font-size="11" text-anchor="start" font-weight="normal" fill="#1F2937">≈ 4.28× · 26.8 ms</text>
<text x="102" y="332" font-size="11" text-anchor="end" font-weight="normal" fill="#1F2937">MySQL</text>
<rect x="108" y="318" width="158" height="16" fill="#E69F00" fill-opacity="1"><title>MySQL - GL account details for a year: median 12.7 ms (12.7 (11–13.9)); 2.02× of the fastest</title></rect>
<line x1="245.3" y1="326" x2="281.7" y2="326" stroke="#111827" stroke-width="1"/>
<line x1="245.3" y1="323" x2="245.3" y2="329" stroke="#111827" stroke-width="1"/>
<line x1="281.7" y1="323" x2="281.7" y2="329" stroke="#111827" stroke-width="1"/>
<text x="287.7" y="332" font-size="11" text-anchor="start" font-weight="normal" fill="#1F2937">≈ 2.02× · 12.7 ms</text>
<text x="102" y="352" font-size="11" text-anchor="end" font-weight="normal" fill="#1F2937">PostgreSQL</text>
<rect x="108" y="338" width="78" height="16" fill="#CC79A7" fill-opacity="1"><title>PostgreSQL - GL account details for a year: median 6.26 ms (6.26 (5.92–6.86)); 1.00× of the fastest</title></rect>
<line x1="182" y1="346" x2="193.7" y2="346" stroke="#111827" stroke-width="1"/>
<line x1="182" y1="343" x2="182" y2="349" stroke="#111827" stroke-width="1"/>
<line x1="193.7" y1="343" x2="193.7" y2="349" stroke="#111827" stroke-width="1"/>
<text x="199.7" y="352" font-size="11" text-anchor="start" font-weight="normal" fill="#1F2937">1.00× · 6.26 ms</text>
<text x="16" y="379" font-size="12" text-anchor="start" font-weight="600" fill="#1F2937">Deep paging and counting in a 300,000-line journal</text>
<text x="102" y="400" font-size="11" text-anchor="end" font-weight="normal" fill="#1F2937">SQL Server</text>
<rect x="108" y="386" width="78" height="16" fill="#0072B2" fill-opacity="1"><title>SQL Server - Deep paging and counting in a 300,000-line journal: median 28.5 s (28.5 (26.1–34.3)); 1.00× of the fastest</title></rect>
<line x1="179.6" y1="394" x2="202.2" y2="394" stroke="#111827" stroke-width="1"/>
<line x1="179.6" y1="391" x2="179.6" y2="397" stroke="#111827" stroke-width="1"/>
<line x1="202.2" y1="391" x2="202.2" y2="397" stroke="#111827" stroke-width="1"/>
<text x="208.2" y="400" font-size="11" text-anchor="start" font-weight="normal" fill="#1F2937">1.00× · 28.5 s</text>
<text x="102" y="420" font-size="11" text-anchor="end" font-weight="normal" fill="#1F2937">MySQL</text>
<rect x="108" y="406" width="133" height="16" fill="#E69F00" fill-opacity="1"><title>MySQL - Deep paging and counting in a 300,000-line journal: median 48.4 s (48.4 (41.8–51.1)); 1.70× of the fastest</title></rect>
<line x1="222.8" y1="414" x2="248.2" y2="414" stroke="#111827" stroke-width="1"/>
<line x1="222.8" y1="411" x2="222.8" y2="417" stroke="#111827" stroke-width="1"/>
<line x1="248.2" y1="411" x2="248.2" y2="417" stroke="#111827" stroke-width="1"/>
<text x="254.2" y="420" font-size="11" text-anchor="start" font-weight="normal" fill="#1F2937">1.70× · 48.4 s</text>
<text x="102" y="440" font-size="11" text-anchor="end" font-weight="normal" fill="#1F2937">PostgreSQL</text>
<rect x="108" y="426" width="90" height="16" fill="#CC79A7" fill-opacity="1"><title>PostgreSQL - Deep paging and counting in a 300,000-line journal: median 32.9 s (32.9 (28.9–36.2)); 1.16× of the fastest</title></rect>
<line x1="187.5" y1="434" x2="207.4" y2="434" stroke="#111827" stroke-width="1"/>
<line x1="187.5" y1="431" x2="187.5" y2="437" stroke="#111827" stroke-width="1"/>
<line x1="207.4" y1="431" x2="207.4" y2="437" stroke="#111827" stroke-width="1"/>
<text x="213.4" y="440" font-size="11" text-anchor="start" font-weight="normal" fill="#1F2937">≈ 1.16× · 32.9 s</text>
<text x="16" y="466" font-size="11" text-anchor="start" font-weight="normal" fill="#4B5563">Time relative to the fastest engine on each test (1.00× = fastest; lower is better). Whiskers: min–max of the runs. ≈ = tied with the fastest; ≥ = over the time limit.</text>
</g>
</svg>
